<mxfile host="Electron" modified="2024-07-15T03:52:42.600Z" agent="Mozilla/5.0 (Windows NT 10.0; Win64; x64) AppleWebKit/537.36 (KHTML, like Gecko) draw.io/24.6.4 Chrome/124.0.6367.207 Electron/30.0.6 Safari/537.36" etag="ACN7DOJgJxE0pCrY_llM" version="24.6.4" type="device">
  <diagram name="第 1 页" id="60GMK_LwfpFY9P3Vb9xm">
    <mxGraphModel dx="1434" dy="836" grid="0" gridSize="10" guides="1" tooltips="1" connect="1" arrows="1" fold="1" page="1" pageScale="1" pageWidth="827" pageHeight="1169" math="0" shadow="0">
      <root>
        <mxCell id="0" />
        <mxCell id="1" parent="0" />
        <mxCell id="sJhfxyj2pFtwX6zJNLVw-1" value="" style="ellipse;whiteSpace=wrap;html=1;fillColor=#33FFA0;" vertex="1" parent="1">
          <mxGeometry x="183" y="222" width="478" height="330" as="geometry" />
        </mxCell>
        <mxCell id="sJhfxyj2pFtwX6zJNLVw-2" value="" style="ellipse;whiteSpace=wrap;html=1;fillColor=#FFFF00;" vertex="1" parent="1">
          <mxGeometry x="245" y="285" width="368" height="260" as="geometry" />
        </mxCell>
        <mxCell id="sJhfxyj2pFtwX6zJNLVw-3" value="" style="ellipse;whiteSpace=wrap;html=1;fillColor=#66FFFF;" vertex="1" parent="1">
          <mxGeometry x="303" y="353" width="265" height="183" as="geometry" />
        </mxCell>
        <mxCell id="sJhfxyj2pFtwX6zJNLVw-4" value="middleware 1" style="text;html=1;align=center;verticalAlign=middle;whiteSpace=wrap;rounded=0;fillColor=#d80073;fontColor=#ffffff;strokeColor=#A50040;fontStyle=1;fontSize=16;" vertex="1" parent="1">
          <mxGeometry x="362" y="238" width="125" height="30" as="geometry" />
        </mxCell>
        <mxCell id="sJhfxyj2pFtwX6zJNLVw-5" value="middleware 2" style="text;html=1;align=center;verticalAlign=middle;whiteSpace=wrap;rounded=0;fillColor=#d80073;fontColor=#ffffff;strokeColor=#A50040;fontSize=16;fontStyle=1" vertex="1" parent="1">
          <mxGeometry x="363" y="313" width="124" height="30" as="geometry" />
        </mxCell>
        <mxCell id="sJhfxyj2pFtwX6zJNLVw-6" value="" style="shape=flexArrow;endArrow=classic;html=1;rounded=0;entryX=0.25;entryY=0;entryDx=0;entryDy=0;fillColor=#FF3333;" edge="1" parent="1" source="sJhfxyj2pFtwX6zJNLVw-8" target="sJhfxyj2pFtwX6zJNLVw-7">
          <mxGeometry width="50" height="50" relative="1" as="geometry">
            <mxPoint x="128" y="253" as="sourcePoint" />
            <mxPoint x="437" y="404" as="targetPoint" />
          </mxGeometry>
        </mxCell>
        <mxCell id="sJhfxyj2pFtwX6zJNLVw-7" value="处理请求" style="text;html=1;align=center;verticalAlign=middle;whiteSpace=wrap;rounded=0;fillColor=#d80073;fontColor=#ffffff;strokeColor=#A50040;fontSize=16;fontStyle=1" vertex="1" parent="1">
          <mxGeometry x="384" y="486" width="103" height="30" as="geometry" />
        </mxCell>
        <mxCell id="sJhfxyj2pFtwX6zJNLVw-8" value="请求" style="text;html=1;align=center;verticalAlign=middle;whiteSpace=wrap;rounded=0;fillColor=#d80073;fontColor=#ffffff;strokeColor=#A50040;fontSize=20;fontStyle=1" vertex="1" parent="1">
          <mxGeometry x="125" y="222" width="60" height="30" as="geometry" />
        </mxCell>
        <mxCell id="sJhfxyj2pFtwX6zJNLVw-9" value="" style="shape=flexArrow;endArrow=classic;html=1;rounded=0;fillColor=#FF3333;" edge="1" parent="1">
          <mxGeometry width="50" height="50" relative="1" as="geometry">
            <mxPoint x="478" y="486" as="sourcePoint" />
            <mxPoint x="718" y="251" as="targetPoint" />
          </mxGeometry>
        </mxCell>
        <mxCell id="sJhfxyj2pFtwX6zJNLVw-10" value="响应" style="text;html=1;align=center;verticalAlign=middle;whiteSpace=wrap;rounded=0;fillColor=#d80073;fontColor=#ffffff;strokeColor=#A50040;fontSize=20;fontStyle=1" vertex="1" parent="1">
          <mxGeometry x="709" y="222" width="60" height="30" as="geometry" />
        </mxCell>
      </root>
    </mxGraphModel>
  </diagram>
</mxfile>
